<mxfile host="app.diagrams.net" agent="Mozilla/5.0 (Windows NT 10.0; Win64; x64; rv:129.0) Gecko/20100101 Firefox/129.0" version="24.7.7">
  <diagram name="Page-1" id="KMEr7N3SCpesvT9k7eyk">
    <mxGraphModel dx="939" dy="564" grid="1" gridSize="10" guides="1" tooltips="1" connect="1" arrows="1" fold="1" page="1" pageScale="1" pageWidth="850" pageHeight="1100" math="0" shadow="0">
      <root>
        <mxCell id="0" />
        <mxCell id="1" parent="0" />
        <mxCell id="Iex43hJUZoWr18XzuHkU-1" value="Camera" style="sketch=0;outlineConnect=0;fillColor=#000000;strokeColor=#b85450;dashed=0;verticalLabelPosition=bottom;verticalAlign=top;align=center;html=1;fontSize=12;fontStyle=0;aspect=fixed;pointerEvents=1;shape=mxgraph.aws4.camera2;" parent="1" vertex="1">
          <mxGeometry x="590" y="134" width="52.84" height="42" as="geometry" />
        </mxCell>
        <mxCell id="Iex43hJUZoWr18XzuHkU-3" style="edgeStyle=orthogonalEdgeStyle;rounded=0;orthogonalLoop=1;jettySize=auto;html=1;" parent="1" source="Iex43hJUZoWr18XzuHkU-2" target="Iex43hJUZoWr18XzuHkU-1" edge="1">
          <mxGeometry relative="1" as="geometry" />
        </mxCell>
        <mxCell id="Iex43hJUZoWr18XzuHkU-16" value="USB Connection" style="edgeLabel;html=1;align=center;verticalAlign=middle;resizable=0;points=[];" parent="Iex43hJUZoWr18XzuHkU-3" vertex="1" connectable="0">
          <mxGeometry x="-0.2461" relative="1" as="geometry">
            <mxPoint as="offset" />
          </mxGeometry>
        </mxCell>
        <mxCell id="Iex43hJUZoWr18XzuHkU-2" value="Photobox Laptop" style="verticalLabelPosition=bottom;html=1;verticalAlign=top;align=center;strokeColor=none;fillColor=#00BEF2;shape=mxgraph.azure.laptop;pointerEvents=1;strokeOpacity=100;" parent="1" vertex="1">
          <mxGeometry x="410" y="130" width="70" height="50" as="geometry" />
        </mxCell>
        <mxCell id="Iex43hJUZoWr18XzuHkU-4" value="Webserver" style="ellipse;shape=cloud;whiteSpace=wrap;html=1;" parent="1" vertex="1">
          <mxGeometry x="250" y="40" width="120" height="80" as="geometry" />
        </mxCell>
        <mxCell id="Iex43hJUZoWr18XzuHkU-11" style="edgeStyle=orthogonalEdgeStyle;rounded=0;orthogonalLoop=1;jettySize=auto;html=1;entryX=0.002;entryY=0.547;entryDx=0;entryDy=0;entryPerimeter=0;startArrow=classic;startFill=1;" parent="1" source="Iex43hJUZoWr18XzuHkU-4" target="Iex43hJUZoWr18XzuHkU-2" edge="1">
          <mxGeometry relative="1" as="geometry" />
        </mxCell>
        <mxCell id="Iex43hJUZoWr18XzuHkU-15" value="https connection" style="edgeLabel;html=1;align=center;verticalAlign=middle;resizable=0;points=[];" parent="Iex43hJUZoWr18XzuHkU-11" vertex="1" connectable="0">
          <mxGeometry x="-0.0193" relative="1" as="geometry">
            <mxPoint as="offset" />
          </mxGeometry>
        </mxCell>
        <mxCell id="Iex43hJUZoWr18XzuHkU-13" style="edgeStyle=orthogonalEdgeStyle;rounded=0;orthogonalLoop=1;jettySize=auto;html=1;" parent="1" source="Iex43hJUZoWr18XzuHkU-12" target="Iex43hJUZoWr18XzuHkU-4" edge="1">
          <mxGeometry relative="1" as="geometry">
            <Array as="points">
              <mxPoint x="167" y="80" />
            </Array>
          </mxGeometry>
        </mxCell>
        <mxCell id="Iex43hJUZoWr18XzuHkU-14" value="https connection" style="edgeLabel;html=1;align=center;verticalAlign=middle;resizable=0;points=[];" parent="Iex43hJUZoWr18XzuHkU-13" vertex="1" connectable="0">
          <mxGeometry x="0.0338" y="-1" relative="1" as="geometry">
            <mxPoint as="offset" />
          </mxGeometry>
        </mxCell>
        <mxCell id="Iex43hJUZoWr18XzuHkU-12" value="User Phone" style="verticalLabelPosition=bottom;html=1;verticalAlign=top;align=center;strokeColor=none;fillColor=#00BEF2;shape=mxgraph.azure.mobile;pointerEvents=1;" parent="1" vertex="1">
          <mxGeometry x="160" y="130" width="35" height="50" as="geometry" />
        </mxCell>
      </root>
    </mxGraphModel>
  </diagram>
</mxfile>
